# 3ds Max Wavefront OBJ Exporter v0.97b - (c)2007 guruware
# File Created: 06.12.2016 23:36:26

mtllib bookshelf.mtl

#
# object Box001
#

v  -9.9795 29.8703 0.0000
v  -9.9795 0.0243 -0.0000
v  -8.1609 0.0243 -0.0000
v  -8.1609 29.8703 0.0000
v  -8.1609 0.0243 -10.1627
v  -9.9795 0.0243 -10.1627
v  -9.9795 29.8703 -10.1626
v  -8.1609 29.8703 -10.1626
# 8 vertices

vn 0.0000 -0.0000 1.0000
vn 0.0000 0.0000 -1.0000
vn 0.0000 -1.0000 -0.0000
vn 1.0000 0.0000 -0.0000
vn 0.0000 1.0000 0.0000
vn -1.0000 0.0000 -0.0000
# 6 vertex normals

vt 0.0000 1.0000 0.0000
vt 0.0000 0.0000 0.0000
vt 1.0000 0.0000 0.0000
vt 1.0000 1.0000 0.0000
# 4 texture coords

g Box001
usemtl wire_002002002
s 2
f 1/1/1 2/2/1 3/3/1 4/4/1 
s 4
f 5/2/2 6/3/2 7/4/2 8/1/2 
s 8
f 3/3/3 2/2/3 6/1/3 5/4/3 
s 16
f 4/3/4 3/2/4 5/1/4 8/4/4 
s 32
f 1/3/5 4/2/5 8/1/5 7/4/5 
s 64
f 2/3/6 1/2/6 7/1/6 6/4/6 
# 6 polygons

#
# object Box002
#

v  8.1499 29.8703 0.0000
v  8.1499 0.0243 -0.0000
v  9.9685 0.0243 -0.0000
v  9.9685 29.8703 0.0000
v  9.9685 0.0243 -10.1627
v  8.1499 0.0243 -10.1627
v  8.1499 29.8703 -10.1626
v  9.9685 29.8703 -10.1626
# 8 vertices

vn 0.0000 -0.0000 1.0000
vn 0.0000 0.0000 -1.0000
vn 0.0000 -1.0000 -0.0000
vn 1.0000 0.0000 -0.0000
vn 0.0000 1.0000 0.0000
vn -1.0000 0.0000 -0.0000
# 6 vertex normals

vt 0.0000 1.0000 0.0000
vt 0.0000 0.0000 0.0000
vt 1.0000 0.0000 0.0000
vt 1.0000 1.0000 0.0000
# 4 texture coords

g Box002
usemtl wire_002002002
s 2
f 9/5/7 10/6/7 11/7/7 12/8/7 
s 4
f 13/6/8 14/7/8 15/8/8 16/5/8 
s 8
f 11/7/9 10/6/9 14/5/9 13/8/9 
s 16
f 12/7/10 11/6/10 13/5/10 16/8/10 
s 32
f 9/7/11 12/6/11 16/5/11 15/8/11 
s 64
f 10/7/12 9/6/12 15/5/12 14/8/12 
# 6 polygons

#
# object Box003
#

v  -9.9795 31.6898 0.0000
v  -9.9795 29.8708 0.0000
v  9.9684 29.8708 0.0000
v  9.9684 31.6898 0.0000
v  9.9684 29.8708 -10.1656
v  -9.9795 29.8708 -10.1656
v  -9.9795 31.6898 -10.1656
v  9.9684 31.6898 -10.1656
# 8 vertices

vn 0.0000 -0.0000 1.0000
vn 0.0000 0.0000 -1.0000
vn 0.0000 -1.0000 -0.0000
vn 1.0000 0.0000 -0.0000
vn 0.0000 1.0000 0.0000
vn -1.0000 0.0000 -0.0000
# 6 vertex normals

vt 0.0000 1.0000 0.0000
vt 0.0000 0.0000 0.0000
vt 1.0000 0.0000 0.0000
vt 1.0000 1.0000 0.0000
# 4 texture coords

g Box003
usemtl wire_002002002
s 2
f 17/9/13 18/10/13 19/11/13 20/12/13 
s 4
f 21/10/14 22/11/14 23/12/14 24/9/14 
s 8
f 19/11/15 18/10/15 22/9/15 21/12/15 
s 16
f 20/11/16 19/10/16 21/9/16 24/12/16 
s 32
f 17/11/17 20/10/17 24/9/17 23/12/17 
s 64
f 18/11/18 17/10/18 23/9/18 22/12/18 
# 6 polygons

#
# object Box004
#

v  -9.9795 -0.0261 0.0000
v  -9.9795 -1.8451 -0.0000
v  9.9684 -1.8451 -0.0000
v  9.9684 -0.0261 0.0000
v  9.9684 -1.8451 -10.1656
v  -9.9795 -1.8451 -10.1656
v  -9.9795 -0.0261 -10.1656
v  9.9684 -0.0261 -10.1656
# 8 vertices

vn 0.0000 -0.0000 1.0000
vn 0.0000 0.0000 -1.0000
vn 0.0000 -1.0000 -0.0000
vn 1.0000 0.0000 -0.0000
vn 0.0000 1.0000 0.0000
vn -1.0000 0.0000 -0.0000
# 6 vertex normals

vt 0.0000 1.0000 0.0000
vt 0.0000 0.0000 0.0000
vt 1.0000 0.0000 0.0000
vt 1.0000 1.0000 0.0000
# 4 texture coords

g Box004
usemtl wire_002002002
s 2
f 25/13/19 26/14/19 27/15/19 28/16/19 
s 4
f 29/14/20 30/15/20 31/16/20 32/13/20 
s 8
f 27/15/21 26/14/21 30/13/21 29/16/21 
s 16
f 28/15/22 27/14/22 29/13/22 32/16/22 
s 32
f 25/15/23 28/14/23 32/13/23 31/16/23 
s 64
f 26/15/24 25/14/24 31/13/24 30/16/24 
# 6 polygons

#
# object Box005
#

v  -9.9790 -1.8451 -0.0000
v  -9.9790 31.6881 0.0000
v  9.9684 31.6881 0.0000
v  9.9684 -1.8451 -0.0000
v  -9.9790 -1.8451 1.4872
v  9.9684 -1.8451 1.4872
v  9.9684 31.6881 1.4872
v  -9.9790 31.6881 1.4872
# 8 vertices

vn 0.0000 0.0000 -1.0000
vn 0.0000 -0.0000 1.0000
vn 0.0000 -1.0000 -0.0000
vn 1.0000 0.0000 -0.0000
vn 0.0000 1.0000 0.0000
vn -1.0000 0.0000 -0.0000
# 6 vertex normals

vt 1.0000 0.0000 0.0000
vt 1.0000 1.0000 0.0000
vt 0.0000 1.0000 0.0000
vt 0.0000 0.0000 0.0000
# 4 texture coords

g Box005
usemtl wire_002002002
s 2
f 33/17/25 34/18/25 35/19/25 36/20/25 
s 4
f 37/20/26 38/17/26 39/18/26 40/19/26 
s 8
f 33/20/27 36/17/27 38/18/27 37/19/27 
s 16
f 36/20/28 35/17/28 39/18/28 38/19/28 
s 32
f 35/20/29 34/17/29 40/18/29 39/19/29 
s 64
f 34/20/30 33/17/30 37/18/30 40/19/30 
# 6 polygons

#
# object Box006
#

v  -9.9795 23.9961 0.0000
v  -9.9795 22.1771 -0.0000
v  9.9684 22.1771 -0.0000
v  9.9684 23.9961 0.0000
v  9.9684 22.1771 -10.1656
v  -9.9795 22.1771 -10.1656
v  -9.9795 23.9961 -10.1656
v  9.9684 23.9961 -10.1656
# 8 vertices

vn 0.0000 -0.0000 1.0000
vn 0.0000 0.0000 -1.0000
vn 0.0000 -1.0000 -0.0000
vn 1.0000 0.0000 -0.0000
vn 0.0000 1.0000 0.0000
vn -1.0000 0.0000 -0.0000
# 6 vertex normals

vt 0.0000 1.0000 0.0000
vt 0.0000 0.0000 0.0000
vt 1.0000 0.0000 0.0000
vt 1.0000 1.0000 0.0000
# 4 texture coords

g Box006
usemtl wire_002002002
s 2
f 41/21/31 42/22/31 43/23/31 44/24/31 
s 4
f 45/22/32 46/23/32 47/24/32 48/21/32 
s 8
f 43/23/33 42/22/33 46/21/33 45/24/33 
s 16
f 44/23/34 43/22/34 45/21/34 48/24/34 
s 32
f 41/23/35 44/22/35 48/21/35 47/24/35 
s 64
f 42/23/36 41/22/36 47/21/36 46/24/36 
# 6 polygons

#
# object Box007
#

v  -9.9795 15.8898 0.0000
v  -9.9795 14.0708 -0.0000
v  9.9684 14.0708 -0.0000
v  9.9684 15.8898 0.0000
v  9.9684 14.0708 -10.1656
v  -9.9795 14.0708 -10.1656
v  -9.9795 15.8898 -10.1656
v  9.9684 15.8898 -10.1656
# 8 vertices

vn 0.0000 -0.0000 1.0000
vn 0.0000 0.0000 -1.0000
vn 0.0000 -1.0000 -0.0000
vn 1.0000 0.0000 -0.0000
vn 0.0000 1.0000 0.0000
vn -1.0000 0.0000 -0.0000
# 6 vertex normals

vt 0.0000 1.0000 0.0000
vt 0.0000 0.0000 0.0000
vt 1.0000 0.0000 0.0000
vt 1.0000 1.0000 0.0000
# 4 texture coords

g Box007
usemtl wire_002002002
s 2
f 49/25/37 50/26/37 51/27/37 52/28/37 
s 4
f 53/26/38 54/27/38 55/28/38 56/25/38 
s 8
f 51/27/39 50/26/39 54/25/39 53/28/39 
s 16
f 52/27/40 51/26/40 53/25/40 56/28/40 
s 32
f 49/27/41 52/26/41 56/25/41 55/28/41 
s 64
f 50/27/42 49/26/42 55/25/42 54/28/42 
# 6 polygons

#
# object Box008
#

v  -9.9795 7.2279 0.0000
v  -9.9795 5.4089 -0.0000
v  9.9684 5.4089 -0.0000
v  9.9684 7.2279 0.0000
v  9.9684 5.4089 -10.1656
v  -9.9795 5.4089 -10.1656
v  -9.9795 7.2279 -10.1656
v  9.9684 7.2279 -10.1656
# 8 vertices

vn 0.0000 -0.0000 1.0000
vn 0.0000 0.0000 -1.0000
vn 0.0000 -1.0000 -0.0000
vn 1.0000 0.0000 -0.0000
vn 0.0000 1.0000 0.0000
vn -1.0000 0.0000 -0.0000
# 6 vertex normals

vt 0.0000 1.0000 0.0000
vt 0.0000 0.0000 0.0000
vt 1.0000 0.0000 0.0000
vt 1.0000 1.0000 0.0000
# 4 texture coords

g Box008
usemtl wire_002002002
s 2
f 57/29/43 58/30/43 59/31/43 60/32/43 
s 4
f 61/30/44 62/31/44 63/32/44 64/29/44 
s 8
f 59/31/45 58/30/45 62/29/45 61/32/45 
s 16
f 60/31/46 59/30/46 61/29/46 64/32/46 
s 32
f 57/31/47 60/30/47 64/29/47 63/32/47 
s 64
f 58/31/48 57/30/48 63/29/48 62/32/48 
# 6 polygons

#
# object Box009
#

v  -8.2350 13.3232 -1.0122
v  -6.8318 7.2680 -0.7318
v  -5.5087 7.5750 -0.7233
v  -6.9119 13.6302 -1.0037
v  -5.4275 7.3628 -5.7133
v  -6.7506 7.0558 -5.7218
v  -8.1538 13.1110 -6.0021
v  -6.8306 13.4180 -5.9937
# 8 vertices

vn -0.0163 0.0425 0.9990
vn 0.0163 -0.0425 -0.9990
vn 0.2255 -0.9732 0.0451
vn 0.9741 0.2260 0.0062
vn -0.2255 0.9732 -0.0451
vn -0.9741 -0.2260 -0.0062
# 6 vertex normals

vt 0.0000 1.0000 0.0000
vt 0.0000 0.0000 0.0000
vt 1.0000 0.0000 0.0000
vt 1.0000 1.0000 0.0000
# 4 texture coords

g Box009
usemtl wire_135006006
s 2
f 65/33/49 66/34/49 67/35/49 68/36/49 
s 4
f 69/34/50 70/35/50 71/36/50 72/33/50 
s 8
f 67/35/51 66/34/51 70/33/51 69/36/51 
s 16
f 68/35/52 67/34/52 69/33/52 72/36/52 
s 32
f 65/35/53 68/34/53 72/33/53 71/36/53 
s 64
f 66/35/54 65/34/54 71/33/54 70/36/54 
# 6 polygons

#
# object Box010
#

v  -6.6291 13.3232 -1.0122
v  -5.2259 7.2680 -0.7318
v  -3.9028 7.5750 -0.7233
v  -5.3059 13.6302 -1.0037
v  -3.8215 7.3628 -5.7133
v  -5.1447 7.0558 -5.7218
v  -6.5479 13.1110 -6.0021
v  -5.2247 13.4180 -5.9937
# 8 vertices

vn -0.0163 0.0425 0.9990
vn 0.0163 -0.0425 -0.9990
vn 0.2255 -0.9732 0.0451
vn 0.9741 0.2260 0.0062
vn -0.2255 0.9732 -0.0451
vn -0.9741 -0.2260 -0.0062
# 6 vertex normals

vt 0.0000 1.0000 0.0000
vt 0.0000 0.0000 0.0000
vt 1.0000 0.0000 0.0000
vt 1.0000 1.0000 0.0000
# 4 texture coords

g Box010
usemtl wire_008008136
s 2
f 73/37/55 74/38/55 75/39/55 76/40/55 
s 4
f 77/38/56 78/39/56 79/40/56 80/37/56 
s 8
f 75/39/57 74/38/57 78/37/57 77/40/57 
s 16
f 76/39/58 75/38/58 77/37/58 80/40/58 
s 32
f 73/39/59 76/38/59 80/37/59 79/40/59 
s 64
f 74/39/60 73/38/60 79/37/60 78/40/60 
# 6 polygons

#
# object Box011
#

v  6.8770 13.6234 -1.0507
v  5.2194 7.6359 -0.7099
v  6.5286 7.2749 -0.6848
v  8.1862 13.2623 -1.0256
v  6.5447 6.9866 -5.6716
v  5.2355 7.3476 -5.6967
v  6.8931 13.3351 -6.0375
v  8.2023 12.9740 -6.0124
# 8 vertices

vn -0.0032 0.0577 0.9983
vn 0.0032 -0.0577 -0.9983
vn -0.2664 -0.9623 0.0548
vn 0.9639 -0.2658 0.0185
vn 0.2664 0.9623 -0.0548
vn -0.9639 0.2658 -0.0185
# 6 vertex normals

vt 0.0000 1.0000 0.0000
vt 0.0000 0.0000 0.0000
vt 1.0000 0.0000 0.0000
vt 1.0000 1.0000 0.0000
# 4 texture coords

g Box011
usemtl wire_135006006
s 2
f 81/41/61 82/42/61 83/43/61 84/44/61 
s 4
f 85/42/62 86/43/62 87/44/62 88/41/62 
s 8
f 83/43/63 82/42/63 86/41/63 85/44/63 
s 16
f 84/43/64 83/42/64 85/41/64 88/44/64 
s 32
f 81/43/65 84/42/65 88/41/65 87/44/65 
s 64
f 82/43/66 81/42/66 87/41/66 86/44/66 
# 6 polygons

#
# object Box012
#

v  3.6876 1.2006 -0.1158
v  -2.5301 1.2006 0.1158
v  -2.5301 -0.1577 0.1158
v  3.6876 -0.1577 -0.1158
v  -2.7160 -0.1577 -4.8759
v  -2.7160 1.2006 -4.8759
v  3.5017 1.2006 -5.1074
v  3.5017 -0.1577 -5.1074
# 8 vertices

vn 0.0372 -0.0000 0.9993
vn -0.0372 0.0000 -0.9993
vn -0.9993 0.0000 0.0372
vn -0.0000 -1.0000 -0.0000
vn 0.9993 -0.0000 -0.0372
vn 0.0000 1.0000 0.0000
# 6 vertex normals

vt 0.0000 1.0000 0.0000
vt 0.0000 0.0000 0.0000
vt 1.0000 0.0000 0.0000
vt 1.0000 1.0000 0.0000
# 4 texture coords

g Box012
usemtl wire_008008136
s 2
f 89/45/67 90/46/67 91/47/67 92/48/67 
s 4
f 93/46/68 94/47/68 95/48/68 96/45/68 
s 8
f 91/47/69 90/46/69 94/45/69 93/48/69 
s 16
f 92/47/70 91/46/70 93/45/70 96/48/70 
s 32
f 89/47/71 92/46/71 96/45/71 95/48/71 
s 64
f 90/47/72 89/46/72 95/45/72 94/48/72 
# 6 polygons

#
# object Box013
#

v  6.0273 22.2606 -1.0670
v  6.0202 16.0497 -0.6945
v  7.3783 16.0497 -0.6685
v  7.3854 22.2606 -1.0409
v  7.4739 15.7506 -5.6538
v  6.1158 15.7506 -5.6798
v  6.1229 21.9615 -6.0523
v  7.4810 21.9615 -6.0262
# 8 vertices

vn -0.0191 0.0599 0.9980
vn 0.0191 -0.0599 -0.9980
vn -0.0011 -0.9982 0.0599
vn 0.9998 0.0000 0.0192
vn 0.0011 0.9982 -0.0599
vn -0.9998 -0.0000 -0.0192
# 6 vertex normals

vt 0.0000 1.0000 0.0000
vt 0.0000 0.0000 0.0000
vt 1.0000 0.0000 0.0000
vt 1.0000 1.0000 0.0000
# 4 texture coords

g Box013
usemtl wire_135006006
s 2
f 97/49/73 98/50/73 99/51/73 100/52/73 
s 4
f 101/50/74 102/51/74 103/52/74 104/49/74 
s 8
f 99/51/75 98/50/75 102/49/75 101/52/75 
s 16
f 100/51/76 99/50/76 101/49/76 104/52/76 
s 32
f 97/51/77 100/50/77 104/49/77 103/52/77 
s 64
f 98/51/78 97/50/78 103/49/78 102/52/78 
# 6 polygons

#
# object Box014
#

v  4.1483 22.2606 -1.0670
v  4.1412 16.0497 -0.6945
v  5.4993 16.0497 -0.6685
v  5.5064 22.2606 -1.0409
v  5.5949 15.7506 -5.6538
v  4.2368 15.7506 -5.6798
v  4.2439 21.9615 -6.0523
v  5.6020 21.9615 -6.0262
# 8 vertices

vn -0.0191 0.0599 0.9980
vn 0.0191 -0.0599 -0.9980
vn -0.0011 -0.9982 0.0599
vn 0.9998 0.0000 0.0192
vn 0.0011 0.9982 -0.0599
vn -0.9998 -0.0000 -0.0192
# 6 vertex normals

vt 0.0000 1.0000 0.0000
vt 0.0000 0.0000 0.0000
vt 1.0000 0.0000 0.0000
vt 1.0000 1.0000 0.0000
# 4 texture coords

g Box014
usemtl wire_135006006
s 2
f 105/53/79 106/54/79 107/55/79 108/56/79 
s 4
f 109/54/80 110/55/80 111/56/80 112/53/80 
s 8
f 107/55/81 106/54/81 110/53/81 109/56/81 
s 16
f 108/55/82 107/54/82 109/53/82 112/56/82 
s 32
f 105/55/83 108/54/83 112/53/83 111/56/83 
s 64
f 106/55/84 105/54/84 111/53/84 110/56/84 
# 6 polygons

#
# object Box015
#

v  0.3597 22.2606 -1.0670
v  0.3526 16.0497 -0.6945
v  1.7107 16.0497 -0.6685
v  1.7178 22.2606 -1.0409
v  1.8063 15.7506 -5.6538
v  0.4482 15.7506 -5.6798
v  0.4553 21.9615 -6.0523
v  1.8134 21.9615 -6.0262
# 8 vertices

vn -0.0191 0.0599 0.9980
vn 0.0191 -0.0599 -0.9980
vn -0.0011 -0.9982 0.0599
vn 0.9998 0.0000 0.0192
vn 0.0011 0.9982 -0.0599
vn -0.9998 -0.0000 -0.0192
# 6 vertex normals

vt 0.0000 1.0000 0.0000
vt 0.0000 0.0000 0.0000
vt 1.0000 0.0000 0.0000
vt 1.0000 1.0000 0.0000
# 4 texture coords

g Box015
usemtl wire_135006006
s 2
f 113/57/85 114/58/85 115/59/85 116/60/85 
s 4
f 117/58/86 118/59/86 119/60/86 120/57/86 
s 8
f 115/59/87 114/58/87 118/57/87 117/60/87 
s 16
f 116/59/88 115/58/88 117/57/88 120/60/88 
s 32
f 113/59/89 116/58/89 120/57/89 119/60/89 
s 64
f 114/59/90 113/58/90 119/57/90 118/60/90 
# 6 polygons

#
# object Box016
#

v  2.2387 22.2606 -1.0670
v  2.2316 16.0497 -0.6945
v  3.5897 16.0497 -0.6685
v  3.5968 22.2606 -1.0409
v  3.6853 15.7506 -5.6538
v  2.3272 15.7506 -5.6798
v  2.3343 21.9615 -6.0523
v  3.6924 21.9615 -6.0262
# 8 vertices

vn -0.0191 0.0599 0.9980
vn 0.0191 -0.0599 -0.9980
vn -0.0011 -0.9982 0.0599
vn 0.9998 0.0000 0.0192
vn 0.0011 0.9982 -0.0599
vn -0.9998 -0.0000 -0.0192
# 6 vertex normals

vt 0.0000 1.0000 0.0000
vt 0.0000 0.0000 0.0000
vt 1.0000 0.0000 0.0000
vt 1.0000 1.0000 0.0000
# 4 texture coords

g Box016
usemtl wire_135006006
s 2
f 121/61/91 122/62/91 123/63/91 124/64/91 
s 4
f 125/62/92 126/63/92 127/64/92 128/61/92 
s 8
f 123/63/93 122/62/93 126/61/93 125/64/93 
s 16
f 124/63/94 123/62/94 125/61/94 128/64/94 
s 32
f 121/63/95 124/62/95 128/61/95 127/64/95 
s 64
f 122/63/96 121/62/96 127/61/96 126/64/96 
# 6 polygons

#
# object Box017
#

v  -3.4736 22.2606 -1.0670
v  -3.4808 16.0497 -0.6945
v  -2.1227 16.0497 -0.6685
v  -2.1156 22.2606 -1.0409
v  -2.0271 15.7506 -5.6538
v  -3.3852 15.7506 -5.6798
v  -3.3780 21.9615 -6.0523
v  -2.0200 21.9615 -6.0262
# 8 vertices

vn -0.0191 0.0599 0.9980
vn 0.0191 -0.0599 -0.9980
vn -0.0011 -0.9982 0.0599
vn 0.9998 0.0000 0.0192
vn 0.0011 0.9982 -0.0599
vn -0.9998 -0.0000 -0.0192
# 6 vertex normals

vt 0.0000 1.0000 0.0000
vt 0.0000 0.0000 0.0000
vt 1.0000 0.0000 0.0000
vt 1.0000 1.0000 0.0000
# 4 texture coords

g Box017
usemtl wire_135006006
s 2
f 129/65/97 130/66/97 131/67/97 132/68/97 
s 4
f 133/66/98 134/67/98 135/68/98 136/65/98 
s 8
f 131/67/99 130/66/99 134/65/99 133/68/99 
s 16
f 132/67/100 131/66/100 133/65/100 136/68/100 
s 32
f 129/67/101 132/66/101 136/65/101 135/68/101 
s 64
f 130/67/102 129/66/102 135/65/102 134/68/102 
# 6 polygons

#
# object Box018
#

v  -1.5946 22.2606 -1.0670
v  -1.6018 16.0497 -0.6945
v  -0.2437 16.0497 -0.6685
v  -0.2366 22.2606 -1.0409
v  -0.1481 15.7506 -5.6538
v  -1.5062 15.7506 -5.6798
v  -1.4990 21.9615 -6.0523
v  -0.1410 21.9615 -6.0262
# 8 vertices

vn -0.0191 0.0599 0.9980
vn 0.0191 -0.0599 -0.9980
vn -0.0011 -0.9982 0.0599
vn 0.9998 0.0000 0.0192
vn 0.0011 0.9982 -0.0599
vn -0.9998 -0.0000 -0.0192
# 6 vertex normals

vt 0.0000 1.0000 0.0000
vt 0.0000 0.0000 0.0000
vt 1.0000 0.0000 0.0000
vt 1.0000 1.0000 0.0000
# 4 texture coords

g Box018
usemtl wire_135006006
s 2
f 137/69/103 138/70/103 139/71/103 140/72/103 
s 4
f 141/70/104 142/71/104 143/72/104 144/69/104 
s 8
f 139/71/105 138/70/105 142/69/105 141/72/105 
s 16
f 140/71/106 139/70/106 141/69/106 144/72/106 
s 32
f 137/71/107 140/70/107 144/69/107 143/72/107 
s 64
f 138/71/108 137/70/108 143/69/108 142/72/108 
# 6 polygons

#
# object Box019
#

v  -7.2967 22.2606 -1.0670
v  -7.3039 16.0497 -0.6945
v  -5.9458 16.0497 -0.6685
v  -5.9386 22.2606 -1.0409
v  -5.8502 15.7506 -5.6538
v  -7.2083 15.7506 -5.6798
v  -7.2011 21.9615 -6.0523
v  -5.8430 21.9615 -6.0262
# 8 vertices

vn -0.0191 0.0599 0.9980
vn 0.0191 -0.0599 -0.9980
vn -0.0011 -0.9982 0.0599
vn 0.9998 0.0000 0.0192
vn 0.0011 0.9982 -0.0599
vn -0.9998 -0.0000 -0.0192
# 6 vertex normals

vt 0.0000 1.0000 0.0000
vt 0.0000 0.0000 0.0000
vt 1.0000 0.0000 0.0000
vt 1.0000 1.0000 0.0000
# 4 texture coords

g Box019
usemtl wire_135006006
s 2
f 145/73/109 146/74/109 147/75/109 148/76/109 
s 4
f 149/74/110 150/75/110 151/76/110 152/73/110 
s 8
f 147/75/111 146/74/111 150/73/111 149/76/111 
s 16
f 148/75/112 147/74/112 149/73/112 152/76/112 
s 32
f 145/75/113 148/74/113 152/73/113 151/76/113 
s 64
f 146/75/114 145/74/114 151/73/114 150/76/114 
# 6 polygons

#
# object Box020
#

v  -5.4177 22.2606 -1.0670
v  -5.4248 16.0497 -0.6945
v  -4.0668 16.0497 -0.6685
v  -4.0596 22.2606 -1.0409
v  -3.9712 15.7506 -5.6538
v  -5.3292 15.7506 -5.6798
v  -5.3221 21.9615 -6.0523
v  -3.9640 21.9615 -6.0262
# 8 vertices

vn -0.0191 0.0599 0.9980
vn 0.0191 -0.0599 -0.9980
vn -0.0011 -0.9982 0.0599
vn 0.9998 0.0000 0.0192
vn 0.0011 0.9982 -0.0599
vn -0.9998 -0.0000 -0.0192
# 6 vertex normals

vt 0.0000 1.0000 0.0000
vt 0.0000 0.0000 0.0000
vt 1.0000 0.0000 0.0000
vt 1.0000 1.0000 0.0000
# 4 texture coords

g Box020
usemtl wire_135006006
s 2
f 153/77/115 154/78/115 155/79/115 156/80/115 
s 4
f 157/78/116 158/79/116 159/80/116 160/77/116 
s 8
f 155/79/117 154/78/117 158/77/117 157/80/117 
s 16
f 156/79/118 155/78/118 157/77/118 160/80/118 
s 32
f 153/79/119 156/78/119 160/77/119 159/80/119 
s 64
f 154/79/120 153/78/120 159/77/120 158/80/120 
# 6 polygons

#
# object Box021
#

v  6.0273 30.5025 -1.0670
v  6.0202 24.2917 -0.6945
v  7.3783 24.2917 -0.6685
v  7.3854 30.5025 -1.0409
v  7.4739 23.9926 -5.6538
v  6.1158 23.9926 -5.6798
v  6.1229 30.2035 -6.0523
v  7.4810 30.2035 -6.0262
# 8 vertices

vn -0.0191 0.0599 0.9980
vn 0.0191 -0.0599 -0.9980
vn -0.0011 -0.9982 0.0599
vn 0.9998 0.0000 0.0192
vn 0.0011 0.9982 -0.0599
vn -0.9998 -0.0000 -0.0192
# 6 vertex normals

vt 0.0000 1.0000 0.0000
vt 0.0000 0.0000 0.0000
vt 1.0000 0.0000 0.0000
vt 1.0000 1.0000 0.0000
# 4 texture coords

g Box021
usemtl wire_008008136
s 2
f 161/81/121 162/82/121 163/83/121 164/84/121 
s 4
f 165/82/122 166/83/122 167/84/122 168/81/122 
s 8
f 163/83/123 162/82/123 166/81/123 165/84/123 
s 16
f 164/83/124 163/82/124 165/81/124 168/84/124 
s 32
f 161/83/125 164/82/125 168/81/125 167/84/125 
s 64
f 162/83/126 161/82/126 167/81/126 166/84/126 
# 6 polygons

#
# object Box022
#

v  4.1483 30.5025 -1.0670
v  4.1412 24.2917 -0.6945
v  5.4993 24.2917 -0.6685
v  5.5064 30.5025 -1.0409
v  5.5949 23.9926 -5.6538
v  4.2368 23.9926 -5.6798
v  4.2439 30.2035 -6.0523
v  5.6020 30.2035 -6.0262
# 8 vertices

vn -0.0191 0.0599 0.9980
vn 0.0191 -0.0599 -0.9980
vn -0.0011 -0.9982 0.0599
vn 0.9998 0.0000 0.0192
vn 0.0011 0.9982 -0.0599
vn -0.9998 -0.0000 -0.0192
# 6 vertex normals

vt 0.0000 1.0000 0.0000
vt 0.0000 0.0000 0.0000
vt 1.0000 0.0000 0.0000
vt 1.0000 1.0000 0.0000
# 4 texture coords

g Box022
usemtl wire_008008136
s 2
f 169/85/127 170/86/127 171/87/127 172/88/127 
s 4
f 173/86/128 174/87/128 175/88/128 176/85/128 
s 8
f 171/87/129 170/86/129 174/85/129 173/88/129 
s 16
f 172/87/130 171/86/130 173/85/130 176/88/130 
s 32
f 169/87/131 172/86/131 176/85/131 175/88/131 
s 64
f 170/87/132 169/86/132 175/85/132 174/88/132 
# 6 polygons

#
# object Box023
#

v  2.2387 30.5025 -1.0670
v  2.2316 24.2917 -0.6945
v  3.5897 24.2917 -0.6685
v  3.5968 30.5025 -1.0409
v  3.6853 23.9926 -5.6538
v  2.3272 23.9926 -5.6798
v  2.3343 30.2035 -6.0523
v  3.6924 30.2035 -6.0262
# 8 vertices

vn -0.0191 0.0599 0.9980
vn 0.0191 -0.0599 -0.9980
vn -0.0011 -0.9982 0.0599
vn 0.9998 0.0000 0.0192
vn 0.0011 0.9982 -0.0599
vn -0.9998 -0.0000 -0.0192
# 6 vertex normals

vt 0.0000 1.0000 0.0000
vt 0.0000 0.0000 0.0000
vt 1.0000 0.0000 0.0000
vt 1.0000 1.0000 0.0000
# 4 texture coords

g Box023
usemtl wire_008008136
s 2
f 177/89/133 178/90/133 179/91/133 180/92/133 
s 4
f 181/90/134 182/91/134 183/92/134 184/89/134 
s 8
f 179/91/135 178/90/135 182/89/135 181/92/135 
s 16
f 180/91/136 179/90/136 181/89/136 184/92/136 
s 32
f 177/91/137 180/90/137 184/89/137 183/92/137 
s 64
f 178/91/138 177/90/138 183/89/138 182/92/138 
# 6 polygons

#
# object Box024
#

v  0.3597 30.5025 -1.0670
v  0.3526 24.2917 -0.6945
v  1.7107 24.2917 -0.6685
v  1.7178 30.5025 -1.0409
v  1.8063 23.9926 -5.6538
v  0.4482 23.9926 -5.6798
v  0.4553 30.2035 -6.0523
v  1.8134 30.2035 -6.0262
# 8 vertices

vn -0.0191 0.0599 0.9980
vn 0.0191 -0.0599 -0.9980
vn -0.0011 -0.9982 0.0599
vn 0.9998 0.0000 0.0192
vn 0.0011 0.9982 -0.0599
vn -0.9998 -0.0000 -0.0192
# 6 vertex normals

vt 0.0000 1.0000 0.0000
vt 0.0000 0.0000 0.0000
vt 1.0000 0.0000 0.0000
vt 1.0000 1.0000 0.0000
# 4 texture coords

g Box024
usemtl wire_008008136
s 2
f 185/93/139 186/94/139 187/95/139 188/96/139 
s 4
f 189/94/140 190/95/140 191/96/140 192/93/140 
s 8
f 187/95/141 186/94/141 190/93/141 189/96/141 
s 16
f 188/95/142 187/94/142 189/93/142 192/96/142 
s 32
f 185/95/143 188/94/143 192/93/143 191/96/143 
s 64
f 186/95/144 185/94/144 191/93/144 190/96/144 
# 6 polygons

#
# object Box025
#

v  -1.5946 30.5025 -1.0670
v  -1.6018 24.2917 -0.6945
v  -0.2437 24.2917 -0.6685
v  -0.2366 30.5025 -1.0409
v  -0.1481 23.9926 -5.6538
v  -1.5062 23.9926 -5.6798
v  -1.4990 30.2035 -6.0523
v  -0.1410 30.2035 -6.0262
# 8 vertices

vn -0.0191 0.0599 0.9980
vn 0.0191 -0.0599 -0.9980
vn -0.0011 -0.9982 0.0599
vn 0.9998 0.0000 0.0192
vn 0.0011 0.9982 -0.0599
vn -0.9998 -0.0000 -0.0192
# 6 vertex normals

vt 0.0000 1.0000 0.0000
vt 0.0000 0.0000 0.0000
vt 1.0000 0.0000 0.0000
vt 1.0000 1.0000 0.0000
# 4 texture coords

g Box025
usemtl wire_008008136
s 2
f 193/97/145 194/98/145 195/99/145 196/100/145 
s 4
f 197/98/146 198/99/146 199/100/146 200/97/146 
s 8
f 195/99/147 194/98/147 198/97/147 197/100/147 
s 16
f 196/99/148 195/98/148 197/97/148 200/100/148 
s 32
f 193/99/149 196/98/149 200/97/149 199/100/149 
s 64
f 194/99/150 193/98/150 199/97/150 198/100/150 
# 6 polygons

#
# object Box026
#

v  -3.4736 30.5025 -1.0670
v  -3.4808 24.2917 -0.6945
v  -2.1227 24.2917 -0.6685
v  -2.1156 30.5025 -1.0409
v  -2.0271 23.9926 -5.6538
v  -3.3852 23.9926 -5.6798
v  -3.3780 30.2035 -6.0523
v  -2.0200 30.2035 -6.0262
# 8 vertices

vn -0.0191 0.0599 0.9980
vn 0.0191 -0.0599 -0.9980
vn -0.0011 -0.9982 0.0599
vn 0.9998 0.0000 0.0192
vn 0.0011 0.9982 -0.0599
vn -0.9998 -0.0000 -0.0192
# 6 vertex normals

vt 0.0000 1.0000 0.0000
vt 0.0000 0.0000 0.0000
vt 1.0000 0.0000 0.0000
vt 1.0000 1.0000 0.0000
# 4 texture coords

g Box026
usemtl wire_008008136
s 2
f 201/101/151 202/102/151 203/103/151 204/104/151 
s 4
f 205/102/152 206/103/152 207/104/152 208/101/152 
s 8
f 203/103/153 202/102/153 206/101/153 205/104/153 
s 16
f 204/103/154 203/102/154 205/101/154 208/104/154 
s 32
f 201/103/155 204/102/155 208/101/155 207/104/155 
s 64
f 202/103/156 201/102/156 207/101/156 206/104/156 
# 6 polygons

#
# object Box027
#

v  -5.4177 30.5025 -1.0670
v  -5.4248 24.2917 -0.6945
v  -4.0668 24.2917 -0.6685
v  -4.0596 30.5025 -1.0409
v  -3.9712 23.9926 -5.6538
v  -5.3292 23.9926 -5.6798
v  -5.3221 30.2035 -6.0523
v  -3.9640 30.2035 -6.0262
# 8 vertices

vn -0.0191 0.0599 0.9980
vn 0.0191 -0.0599 -0.9980
vn -0.0011 -0.9982 0.0599
vn 0.9998 0.0000 0.0192
vn 0.0011 0.9982 -0.0599
vn -0.9998 -0.0000 -0.0192
# 6 vertex normals

vt 0.0000 1.0000 0.0000
vt 0.0000 0.0000 0.0000
vt 1.0000 0.0000 0.0000
vt 1.0000 1.0000 0.0000
# 4 texture coords

g Box027
usemtl wire_008008136
s 2
f 209/105/157 210/106/157 211/107/157 212/108/157 
s 4
f 213/106/158 214/107/158 215/108/158 216/105/158 
s 8
f 211/107/159 210/106/159 214/105/159 213/108/159 
s 16
f 212/107/160 211/106/160 213/105/160 216/108/160 
s 32
f 209/107/161 212/106/161 216/105/161 215/108/161 
s 64
f 210/107/162 209/106/162 215/105/162 214/108/162 
# 6 polygons

#
# object Box028
#

v  -7.2967 30.5025 -1.0670
v  -7.3039 24.2917 -0.6945
v  -5.9458 24.2917 -0.6685
v  -5.9386 30.5025 -1.0409
v  -5.8502 23.9926 -5.6538
v  -7.2083 23.9926 -5.6798
v  -7.2011 30.2035 -6.0523
v  -5.8430 30.2035 -6.0262
# 8 vertices

vn -0.0191 0.0599 0.9980
vn 0.0191 -0.0599 -0.9980
vn -0.0011 -0.9982 0.0599
vn 0.9998 0.0000 0.0192
vn 0.0011 0.9982 -0.0599
vn -0.9998 -0.0000 -0.0192
# 6 vertex normals

vt 0.0000 1.0000 0.0000
vt 0.0000 0.0000 0.0000
vt 1.0000 0.0000 0.0000
vt 1.0000 1.0000 0.0000
# 4 texture coords

g Box028
usemtl wire_008008136
s 2
f 217/109/163 218/110/163 219/111/163 220/112/163 
s 4
f 221/110/164 222/111/164 223/112/164 224/109/164 
s 8
f 219/111/165 218/110/165 222/109/165 221/112/165 
s 16
f 220/111/166 219/110/166 221/109/166 224/112/166 
s 32
f 217/111/167 220/110/167 224/109/167 223/112/167 
s 64
f 218/111/168 217/110/168 223/109/168 222/112/168 
# 6 polygons

